<?xml version="1.0" encoding="UTF-8"?>
<svg id="Layer_1" xmlns="http://www.w3.org/2000/svg" version="1.1" viewBox="0 0 1180 320">
  <!-- Generator: Adobe Illustrator 29.2.1, SVG Export Plug-In . SVG Version: 2.1.0 Build 116)  -->
  <defs>
    <style>
      .st0 {
        fill: #fff;
      }
    </style>
  </defs>
  <path class="st0" d="M367.4,153.8c0,52.3,33.6,88.8,80.2,88.8s80.2-36.5,80.2-88.8-33.6-88.8-80.2-88.8-80.2,36.5-80.2,88.8ZM497,153.8c0,37.4-20.4,61.7-49.4,61.7s-49.4-24.2-49.4-61.7,20.4-61.7,49.4-61.7,49.4,24.2,49.4,61.7Z"/>
  <path class="st0" d="M614.3,242.6c35.3,0,55.4-29.8,55.4-65.5s-20.2-65.5-55.4-65.5-28.3,6.5-36.2,15.8v-13.4h-28.8v169.2h28.8v-56.4c7.9,9.4,19.9,15.8,36.2,15.8h0ZM577.3,173.5c0-23.8,13.4-36.7,31.2-36.7s32.2,16.3,32.2,40.3-11.3,40.3-32.2,40.3-31.2-13.2-31.2-36.5v-7.4Z"/>
  <path class="st0" d="M747.7,242.6c25.2,0,45.1-13.2,54-35.3l-24.7-9.4c-3.8,13-15.1,20.2-29.3,20.2s-31.4-13.2-33.6-34.8h88.3v-9.6c0-34.6-19.4-62.2-55.9-62.2s-60,28.6-60,65.5,25.2,65.5,61.2,65.5h0ZM746.2,135.8c18.2,0,26.9,12,27.1,25.9h-57.8c4.3-17,15.8-25.9,30.7-25.9h0Z"/>
  <path class="st0" d="M824,240h28.8v-73.9c0-18,13.2-27.6,26.2-27.6s22.1,11.3,22.1,26.9v74.6h28.8v-83c0-27.1-15.8-45.4-42.2-45.4s-27.6,7.4-34.8,15.8v-13.4h-28.8v126Z"/>
  <path class="st0" d="M1014.2,67.7l-65.3,172.3h30.5l14.6-39.4h74.4l14.9,39.4h31l-65.3-172.3h-34.8ZM1031,101.8l27.4,72h-54.2l26.9-72Z"/>
  <path class="st0" d="M1163.7,68.2h-30.7v172.3h30.7V68.2Z"/>
  <path class="st0" d="M297.1,131c7.3-21.8,4.8-45.7-6.9-65.5-17.5-30.4-52.6-46-86.8-38.7C188.1,9.6,166.2-.1,143.2,0c-35,0-66.1,22.5-76.9,55.8-22.5,4.6-41.9,18.7-53.3,38.7C-4.6,124.8-.6,163,22.9,189c-7.3,21.8-4.8,45.7,6.9,65.5,17.5,30.4,52.6,46,86.8,38.7,15.2,17.2,37.2,27,60.1,26.8,35.1,0,66.2-22.5,76.9-55.9,22.5-4.6,41.9-18.7,53.3-38.7,17.6-30.3,13.5-68.5-9.9-94.5h0ZM176.8,299.1c-14,0-27.6-4.9-38.4-13.9.5-.3,1.3-.7,1.9-1.1l63.7-36.8c3.3-1.9,5.3-5.3,5.2-9.1v-89.8l26.9,15.6c.3.1.5.4.5.7v74.4c0,33.1-26.8,59.9-59.9,60h0ZM47.9,244.1c-7-12.1-9.6-26.4-7.2-40.2.5.3,1.3.8,1.9,1.1l63.7,36.8c3.2,1.9,7.2,1.9,10.5,0l77.8-44.9v31.1c0,.3-.1.6-.4.8l-64.4,37.2c-28.7,16.5-65.3,6.7-81.9-21.9h0ZM31.2,105c7-12.2,18-21.5,31.2-26.3,0,.6,0,1.5,0,2.2v73.6c0,3.7,2,7.2,5.2,9.1l77.8,44.9-26.9,15.6c-.3.2-.6.2-.9,0l-64.4-37.2c-28.6-16.6-38.5-53.2-22-81.9h0ZM252.4,156.5l-77.8-44.9,26.9-15.5c.3-.2.6-.2.9,0l64.4,37.2c28.7,16.6,38.5,53.3,21.9,81.9-7,12.1-18,21.4-31.2,26.3v-75.8c0-3.7-2-7.2-5.2-9.1h0ZM279.2,116.1c-.5-.3-1.3-.8-1.9-1.1l-63.7-36.8c-3.2-1.9-7.2-1.9-10.5,0l-77.8,44.9v-31.1c0-.3.1-.6.4-.8l64.4-37.2c28.7-16.5,65.4-6.7,81.9,22,7,12.1,9.5,26.3,7.1,40.1h0ZM110.7,171.5l-26.9-15.6c-.3-.1-.5-.4-.5-.7v-74.4c0-33.1,26.9-60,60-59.9,14,0,27.6,4.9,38.3,13.9-.5.3-1.3.7-1.9,1.1l-63.7,36.8c-3.3,1.8-5.3,5.3-5.2,9.1v89.8s0,0,0,0ZM125.3,140l34.7-20,34.7,20v40l-34.6,20-34.7-20v-40Z"/>
</svg>